<svg id="visual" viewBox="0 0 900 600" width="900" height="600" xmlns="http://www.w3.org/2000/svg" xmlns:xlink="http://www.w3.org/1999/xlink" version="1.1"><rect x="0" y="0" width="900" height="600" fill="#6096e6"></rect><path d="M0 436L18.8 437.2C37.7 438.3 75.3 440.7 112.8 445C150.3 449.3 187.7 455.7 225.2 454.3C262.7 453 300.3 444 337.8 440.5C375.3 437 412.7 439 450.2 443.2C487.7 447.3 525.3 453.7 562.8 456.7C600.3 459.7 637.7 459.3 675.2 458C712.7 456.7 750.3 454.3 787.8 452.5C825.3 450.7 862.7 449.3 881.3 448.7L900 448L900 601L881.3 601C862.7 601 825.3 601 787.8 601C750.3 601 712.7 601 675.2 601C637.7 601 600.3 601 562.8 601C525.3 601 487.7 601 450.2 601C412.7 601 375.3 601 337.8 601C300.3 601 262.7 601 225.2 601C187.7 601 150.3 601 112.8 601C75.3 601 37.7 601 18.8 601L0 601Z" fill="#009473"></path><path d="M0 466L18.8 467.7C37.7 469.3 75.3 472.7 112.8 474.7C150.3 476.7 187.7 477.3 225.2 479C262.7 480.7 300.3 483.3 337.8 482.3C375.3 481.3 412.7 476.7 450.2 476.7C487.7 476.7 525.3 481.3 562.8 482.5C600.3 483.7 637.7 481.3 675.2 480C712.7 478.7 750.3 478.3 787.8 477.2C825.3 476 862.7 474 881.3 473L900 472L900 601L881.3 601C862.7 601 825.3 601 787.8 601C750.3 601 712.7 601 675.2 601C637.7 601 600.3 601 562.8 601C525.3 601 487.7 601 450.2 601C412.7 601 375.3 601 337.8 601C300.3 601 262.7 601 225.2 601C187.7 601 150.3 601 112.8 601C75.3 601 37.7 601 18.8 601L0 601Z" fill="#24a98b"></path><path d="M0 508L18.8 506.2C37.7 504.3 75.3 500.7 112.8 500.7C150.3 500.7 187.7 504.3 225.2 506.7C262.7 509 300.3 510 337.8 512.3C375.3 514.7 412.7 518.3 450.2 517.2C487.7 516 525.3 510 562.8 509.8C600.3 509.7 637.7 515.3 675.2 514.3C712.7 513.3 750.3 505.7 787.8 504.3C825.3 503 862.7 508 881.3 510.5L900 513L900 601L881.3 601C862.7 601 825.3 601 787.8 601C750.3 601 712.7 601 675.2 601C637.7 601 600.3 601 562.8 601C525.3 601 487.7 601 450.2 601C412.7 601 375.3 601 337.8 601C300.3 601 262.7 601 225.2 601C187.7 601 150.3 601 112.8 601C75.3 601 37.7 601 18.8 601L0 601Z" fill="#33b79a"></path><path d="M0 536L18.8 534C37.7 532 75.3 528 112.8 527.7C150.3 527.3 187.7 530.7 225.2 533.3C262.7 536 300.3 538 337.8 538.7C375.3 539.3 412.7 538.7 450.2 539.3C487.7 540 525.3 542 562.8 544.5C600.3 547 637.7 550 675.2 548.2C712.7 546.3 750.3 539.7 787.8 538.3C825.3 537 862.7 541 881.3 543L900 545L900 601L881.3 601C862.7 601 825.3 601 787.8 601C750.3 601 712.7 601 675.2 601C637.7 601 600.3 601 562.8 601C525.3 601 487.7 601 450.2 601C412.7 601 375.3 601 337.8 601C300.3 601 262.7 601 225.2 601C187.7 601 150.3 601 112.8 601C75.3 601 37.7 601 18.8 601L0 601Z" fill="#24a98b"></path><path d="M0 572L18.8 570.8C37.7 569.7 75.3 567.3 112.8 568C150.3 568.7 187.7 572.3 225.2 573.3C262.7 574.3 300.3 572.7 337.8 573C375.3 573.3 412.7 575.7 450.2 574.8C487.7 574 525.3 570 562.8 570C600.3 570 637.7 574 675.2 573C712.7 572 750.3 566 787.8 562.2C825.3 558.3 862.7 556.7 881.3 555.8L900 555L900 601L881.3 601C862.7 601 825.3 601 787.8 601C750.3 601 712.7 601 675.2 601C637.7 601 600.3 601 562.8 601C525.3 601 487.7 601 450.2 601C412.7 601 375.3 601 337.8 601C300.3 601 262.7 601 225.2 601C187.7 601 150.3 601 112.8 601C75.3 601 37.7 601 18.8 601L0 601Z" fill="#009473"></path></svg>