<svg id="visual" viewBox="0 0 900 600" width="900" height="600" xmlns="http://www.w3.org/2000/svg" xmlns:xlink="http://www.w3.org/1999/xlink" version="1.1"><rect x="0" y="0" width="900" height="600" fill="#388ecf"></rect><path d="M0 170L21.5 160.8C43 151.7 86 133.3 128.8 128C171.7 122.7 214.3 130.3 257.2 130.7C300 131 343 124 385.8 130C428.7 136 471.3 155 514.2 154.3C557 153.7 600 133.3 642.8 132C685.7 130.7 728.3 148.3 771.2 157.2C814 166 857 166 878.5 166L900 166L900 0L878.5 0C857 0 814 0 771.2 0C728.3 0 685.7 0 642.8 0C600 0 557 0 514.2 0C471.3 0 428.7 0 385.8 0C343 0 300 0 257.2 0C214.3 0 171.7 0 128.8 0C86 0 43 0 21.5 0L0 0Z" fill="#009473"></path><path d="M0 77L21.5 83.2C43 89.3 86 101.7 128.8 110.5C171.7 119.3 214.3 124.7 257.2 126.2C300 127.7 343 125.3 385.8 115.2C428.7 105 471.3 87 514.2 85.3C557 83.7 600 98.3 642.8 98.2C685.7 98 728.3 83 771.2 87C814 91 857 114 878.5 125.5L900 137L900 0L878.5 0C857 0 814 0 771.2 0C728.3 0 685.7 0 642.8 0C600 0 557 0 514.2 0C471.3 0 428.7 0 385.8 0C343 0 300 0 257.2 0C214.3 0 171.7 0 128.8 0C86 0 43 0 21.5 0L0 0Z" fill="#0aa281"></path><path d="M0 64L21.5 62.8C43 61.7 86 59.3 128.8 62.2C171.7 65 214.3 73 257.2 69.5C300 66 343 51 385.8 50.5C428.7 50 471.3 64 514.2 71.5C557 79 600 80 642.8 80.7C685.7 81.3 728.3 81.7 771.2 74C814 66.3 857 50.7 878.5 42.8L900 35L900 0L878.5 0C857 0 814 0 771.2 0C728.3 0 685.7 0 642.8 0C600 0 557 0 514.2 0C471.3 0 428.7 0 385.8 0C343 0 300 0 257.2 0C214.3 0 171.7 0 128.8 0C86 0 43 0 21.5 0L0 0Z" fill="#14b18f"></path></svg>