<svg id="visual" viewBox="0 0 900 600" width="900" height="600" xmlns="http://www.w3.org/2000/svg" xmlns:xlink="http://www.w3.org/1999/xlink" version="1.1"><rect x="0" y="0" width="900" height="600" fill="#388ecf"></rect><path d="M0 79L21.5 78.8C43 78.7 86 78.3 128.8 75C171.7 71.7 214.3 65.3 257.2 61.5C300 57.7 343 56.3 385.8 59C428.7 61.7 471.3 68.3 514.2 68.7C557 69 600 63 642.8 63C685.7 63 728.3 69 771.2 72.2C814 75.3 857 75.7 878.5 75.8L900 76L900 0L878.5 0C857 0 814 0 771.2 0C728.3 0 685.7 0 642.8 0C600 0 557 0 514.2 0C471.3 0 428.7 0 385.8 0C343 0 300 0 257.2 0C214.3 0 171.7 0 128.8 0C86 0 43 0 21.5 0L0 0Z" fill="#009473"></path><path d="M0 54L21.5 54.8C43 55.7 86 57.3 128.8 55.5C171.7 53.7 214.3 48.3 257.2 45C300 41.7 343 40.3 385.8 43.3C428.7 46.3 471.3 53.7 514.2 58C557 62.3 600 63.7 642.8 65.2C685.7 66.7 728.3 68.3 771.2 67.7C814 67 857 64 878.5 62.5L900 61L900 0L878.5 0C857 0 814 0 771.2 0C728.3 0 685.7 0 642.8 0C600 0 557 0 514.2 0C471.3 0 428.7 0 385.8 0C343 0 300 0 257.2 0C214.3 0 171.7 0 128.8 0C86 0 43 0 21.5 0L0 0Z" fill="#0aa281"></path><path d="M0 23L21.5 23.2C43 23.3 86 23.7 128.8 24.2C171.7 24.7 214.3 25.3 257.2 26.3C300 27.3 343 28.7 385.8 30.3C428.7 32 471.3 34 514.2 34.7C557 35.3 600 34.7 642.8 33C685.7 31.3 728.3 28.7 771.2 27.2C814 25.7 857 25.3 878.5 25.2L900 25L900 0L878.5 0C857 0 814 0 771.2 0C728.3 0 685.7 0 642.8 0C600 0 557 0 514.2 0C471.3 0 428.7 0 385.8 0C343 0 300 0 257.2 0C214.3 0 171.7 0 128.8 0C86 0 43 0 21.5 0L0 0Z" fill="#14b18f"></path></svg>