<svg id="visual" viewBox="0 0 900 600" width="900" height="600" xmlns="http://www.w3.org/2000/svg" xmlns:xlink="http://www.w3.org/1999/xlink" version="1.1"><rect x="0" y="0" width="900" height="600" fill="#931C1C"></rect><path d="M0 199L129 195L257 209L386 222L514 256L643 199L771 192L900 272L900 0L771 0L643 0L514 0L386 0L257 0L129 0L0 0Z" fill="#f5730a"></path><path d="M0 185L129 167L257 147L386 198L514 165L643 215L771 231L900 230L900 0L771 0L643 0L514 0L386 0L257 0L129 0L0 0Z" fill="#da5b09"></path><path d="M0 130L129 111L257 146L386 131L514 119L643 184L771 115L900 173L900 0L771 0L643 0L514 0L386 0L257 0L129 0L0 0Z" fill="#be4407"></path><path d="M0 73L129 105L257 140L386 91L514 93L643 67L771 123L900 103L900 0L771 0L643 0L514 0L386 0L257 0L129 0L0 0Z" fill="#a32d04"></path><path d="M0 44L129 29L257 61L386 58L514 58L643 82L771 76L900 29L900 0L771 0L643 0L514 0L386 0L257 0L129 0L0 0Z" fill="#871400"></path></svg>