<svg id="visual" viewBox="0 0 900 600" width="900" height="600" xmlns="http://www.w3.org/2000/svg" xmlns:xlink="http://www.w3.org/1999/xlink" version="1.1"><rect x="0" y="0" width="900" height="600" fill="#6096e6"></rect><path d="M0 133L129 134L257 97L386 134L514 80L643 92L771 97L900 127L900 0L771 0L643 0L514 0L386 0L257 0L129 0L0 0Z" fill="#009473"></path><path d="M0 106L129 55L257 81L386 95L514 90L643 53L771 60L900 70L900 0L771 0L643 0L514 0L386 0L257 0L129 0L0 0Z" fill="#17735e"></path><path d="M0 31L129 49L257 62L386 24L514 44L643 60L771 52L900 26L900 0L771 0L643 0L514 0L386 0L257 0L129 0L0 0Z" fill="#1f5348"></path></svg>